<mxfile host="app.diagrams.net" modified="2020-06-30T18:54:46.163Z" agent="5.0 (Macintosh; Intel Mac OS X 10_15_5) AppleWebKit/537.36 (KHTML, like Gecko) Chrome/83.0.4103.116 Safari/537.36" etag="ri5ajGuHK5r_ik_TkUvH" version="13.3.5" type="github">
  <diagram id="Jb5ylETd7e1f_wdyNb-u" name="Page-1">
    <mxGraphModel dx="1873" dy="1575" grid="1" gridSize="10" guides="1" tooltips="1" connect="1" arrows="1" fold="1" page="1" pageScale="1" pageWidth="850" pageHeight="1100" math="0" shadow="0">
      <root>
        <mxCell id="0" />
        <mxCell id="1" parent="0" />
        <mxCell id="jXQzwG6hfJ6GIbbnQq5l-38" value="" style="rounded=0;whiteSpace=wrap;html=1;fontSize=10;gradientColor=#ffd966;fillColor=#fff2cc;strokeColor=#d6b656;" parent="1" vertex="1">
          <mxGeometry x="-810" y="-470" width="530" height="550" as="geometry" />
        </mxCell>
        <mxCell id="jXQzwG6hfJ6GIbbnQq5l-30" value="" style="rounded=0;whiteSpace=wrap;html=1;fontSize=10;gradientColor=#b3b3b3;fillColor=#f5f5f5;strokeColor=#666666;" parent="1" vertex="1">
          <mxGeometry x="110" y="-370" width="280" height="260" as="geometry" />
        </mxCell>
        <mxCell id="jXQzwG6hfJ6GIbbnQq5l-28" value="" style="rounded=0;whiteSpace=wrap;html=1;fontSize=10;gradientColor=#d5739d;fillColor=#e6d0de;strokeColor=#996185;" parent="1" vertex="1">
          <mxGeometry x="-240" y="-460" width="340" height="250" as="geometry" />
        </mxCell>
        <mxCell id="jXQzwG6hfJ6GIbbnQq5l-24" value="" style="rounded=0;whiteSpace=wrap;html=1;fontSize=10;gradientColor=#7ea6e0;fillColor=#dae8fc;strokeColor=#6c8ebf;" parent="1" vertex="1">
          <mxGeometry x="-201" y="-180" width="270" height="270" as="geometry" />
        </mxCell>
        <mxCell id="jXQzwG6hfJ6GIbbnQq5l-3" style="edgeStyle=orthogonalEdgeStyle;rounded=0;orthogonalLoop=1;jettySize=auto;html=1;exitX=1;exitY=0.75;exitDx=0;exitDy=0;entryX=0;entryY=0.75;entryDx=0;entryDy=0;" parent="1" source="jXQzwG6hfJ6GIbbnQq5l-5" target="jXQzwG6hfJ6GIbbnQq5l-46" edge="1">
          <mxGeometry relative="1" as="geometry">
            <Array as="points">
              <mxPoint x="-260" y="-150" />
              <mxPoint x="-260" y="-310" />
              <mxPoint x="-85" y="-310" />
            </Array>
            <mxPoint x="-100" y="-320" as="targetPoint" />
          </mxGeometry>
        </mxCell>
        <mxCell id="jXQzwG6hfJ6GIbbnQq5l-42" value="" style="edgeStyle=orthogonalEdgeStyle;rounded=0;orthogonalLoop=1;jettySize=auto;html=1;startArrow=blockThin;startFill=0;endArrow=none;endFill=0;fontSize=10;" parent="1" source="jXQzwG6hfJ6GIbbnQq5l-41" target="jXQzwG6hfJ6GIbbnQq5l-5" edge="1">
          <mxGeometry relative="1" as="geometry" />
        </mxCell>
        <mxCell id="jXQzwG6hfJ6GIbbnQq5l-5" value="&lt;b&gt;DashboardVC&lt;/b&gt;&lt;br&gt;-collectionRecent : &lt;b&gt;UICollectionView&lt;/b&gt;&lt;br&gt;-collectionOther : &lt;b&gt;UICollectionView&lt;/b&gt;&lt;br&gt;-interactor: &lt;b&gt;DashboardInteractorLogic&lt;/b&gt;" style="rounded=1;whiteSpace=wrap;html=1;fontSize=10;fillColor=#ffe6cc;strokeColor=#d79b00;" parent="1" vertex="1">
          <mxGeometry x="-590" y="-173" width="180" height="80" as="geometry" />
        </mxCell>
        <mxCell id="jXQzwG6hfJ6GIbbnQq5l-41" value="&lt;b&gt;&amp;lt;DashboardPresenterMsgReceiver&amp;gt;&lt;/b&gt;&lt;br&gt;displayRecentMovies(movies: [Movie])&lt;br&gt;displayOtherMovies(movies: [Movie])" style="rounded=1;whiteSpace=wrap;html=1;fontSize=10;fillColor=#ffe6cc;strokeColor=#d79b00;" parent="1" vertex="1">
          <mxGeometry x="-490" y="-80" width="190" height="80" as="geometry" />
        </mxCell>
        <mxCell id="jXQzwG6hfJ6GIbbnQq5l-6" style="edgeStyle=orthogonalEdgeStyle;rounded=0;orthogonalLoop=1;jettySize=auto;html=1;entryX=0.5;entryY=0;entryDx=0;entryDy=0;" parent="1" source="jXQzwG6hfJ6GIbbnQq5l-8" target="jXQzwG6hfJ6GIbbnQq5l-22" edge="1">
          <mxGeometry relative="1" as="geometry">
            <mxPoint x="-65" y="-150" as="targetPoint" />
          </mxGeometry>
        </mxCell>
        <mxCell id="jXQzwG6hfJ6GIbbnQq5l-23" value="" style="edgeStyle=orthogonalEdgeStyle;rounded=0;orthogonalLoop=1;jettySize=auto;html=1;fontSize=10;endArrow=blockThin;endFill=0;" parent="1" source="jXQzwG6hfJ6GIbbnQq5l-7" target="jXQzwG6hfJ6GIbbnQq5l-22" edge="1">
          <mxGeometry relative="1" as="geometry" />
        </mxCell>
        <mxCell id="nhWdOt1stgoJv69dMVyv-2" style="edgeStyle=orthogonalEdgeStyle;rounded=0;orthogonalLoop=1;jettySize=auto;html=1;exitX=0;exitY=0.25;exitDx=0;exitDy=0;entryX=0.75;entryY=1;entryDx=0;entryDy=0;" edge="1" parent="1" source="jXQzwG6hfJ6GIbbnQq5l-7" target="jXQzwG6hfJ6GIbbnQq5l-41">
          <mxGeometry relative="1" as="geometry" />
        </mxCell>
        <mxCell id="jXQzwG6hfJ6GIbbnQq5l-7" value="&lt;b&gt;DashboardPresenter&lt;/b&gt;&lt;br&gt;receiverVC: DashboardPresenterMsgReceiver" style="rounded=1;whiteSpace=wrap;html=1;fontSize=10;fillColor=#dae8fc;strokeColor=#6c8ebf;" parent="1" vertex="1">
          <mxGeometry x="-169.87" y="-10" width="210" height="60" as="geometry" />
        </mxCell>
        <mxCell id="jXQzwG6hfJ6GIbbnQq5l-22" value="&amp;lt;DashboardInteractorMsgReceiver&amp;gt;&lt;br&gt;-presentFetchedMovies(movies: [Movie])" style="rounded=1;whiteSpace=wrap;html=1;fontSize=10;fillColor=#dae8fc;strokeColor=#6c8ebf;" parent="1" vertex="1">
          <mxGeometry x="-162.99" y="-120" width="196.25" height="60" as="geometry" />
        </mxCell>
        <mxCell id="jXQzwG6hfJ6GIbbnQq5l-20" value="" style="edgeStyle=orthogonalEdgeStyle;rounded=0;orthogonalLoop=1;jettySize=auto;html=1;fontSize=10;startArrow=classic;startFill=1;" parent="1" source="jXQzwG6hfJ6GIbbnQq5l-19" target="jXQzwG6hfJ6GIbbnQq5l-8" edge="1">
          <mxGeometry relative="1" as="geometry" />
        </mxCell>
        <mxCell id="jXQzwG6hfJ6GIbbnQq5l-8" value="DashboardInteractor" style="rounded=1;whiteSpace=wrap;html=1;fontSize=10;fillColor=#f5f5f5;strokeColor=#666666;fontColor=#333333;" parent="1" vertex="1">
          <mxGeometry x="-140" y="-300" width="150" height="60" as="geometry" />
        </mxCell>
        <mxCell id="jXQzwG6hfJ6GIbbnQq5l-36" style="edgeStyle=orthogonalEdgeStyle;rounded=0;orthogonalLoop=1;jettySize=auto;html=1;exitX=1;exitY=0.5;exitDx=0;exitDy=0;entryX=0;entryY=0.25;entryDx=0;entryDy=0;endArrow=classic;endFill=1;fontSize=10;" parent="1" source="jXQzwG6hfJ6GIbbnQq5l-19" target="jXQzwG6hfJ6GIbbnQq5l-34" edge="1">
          <mxGeometry relative="1" as="geometry" />
        </mxCell>
        <mxCell id="jXQzwG6hfJ6GIbbnQq5l-19" value="DashboardNetworkingWorker" style="rounded=1;whiteSpace=wrap;html=1;fontSize=10;fillColor=#e1d5e7;strokeColor=#9673a6;" parent="1" vertex="1">
          <mxGeometry x="160" y="-330" width="150" height="60" as="geometry" />
        </mxCell>
        <mxCell id="jXQzwG6hfJ6GIbbnQq5l-16" style="edgeStyle=orthogonalEdgeStyle;rounded=0;orthogonalLoop=1;jettySize=auto;html=1;exitX=0;exitY=0.5;exitDx=0;exitDy=0;entryX=0.5;entryY=0;entryDx=0;entryDy=0;fontSize=10;" parent="1" source="jXQzwG6hfJ6GIbbnQq5l-5" target="jXQzwG6hfJ6GIbbnQq5l-11" edge="1">
          <mxGeometry relative="1" as="geometry" />
        </mxCell>
        <mxCell id="jXQzwG6hfJ6GIbbnQq5l-11" value="extension &lt;b&gt;DashboardVC&lt;/b&gt;: UiCollectionViewDataSource, UiCollectionViewDelegate" style="rounded=1;whiteSpace=wrap;html=1;fontSize=10;fillColor=#ffe6cc;strokeColor=#d79b00;" parent="1" vertex="1">
          <mxGeometry x="-710" y="-81" width="190" height="110" as="geometry" />
        </mxCell>
        <mxCell id="jXQzwG6hfJ6GIbbnQq5l-18" style="edgeStyle=orthogonalEdgeStyle;rounded=0;orthogonalLoop=1;jettySize=auto;html=1;exitX=0.5;exitY=0;exitDx=0;exitDy=0;entryX=0.5;entryY=1;entryDx=0;entryDy=0;fontSize=10;endArrow=blockThin;endFill=0;" parent="1" source="jXQzwG6hfJ6GIbbnQq5l-8" target="jXQzwG6hfJ6GIbbnQq5l-17" edge="1">
          <mxGeometry relative="1" as="geometry" />
        </mxCell>
        <mxCell id="jXQzwG6hfJ6GIbbnQq5l-17" value="&lt;b&gt;&amp;lt;DashboardVCMsgReceiver&amp;gt;&lt;/b&gt;&lt;br&gt;-fetchRecentMovies&lt;br&gt;-fetchOtherMovies" style="rounded=1;whiteSpace=wrap;html=1;fontSize=10;fillColor=#f5f5f5;strokeColor=#666666;fontColor=#333333;" parent="1" vertex="1">
          <mxGeometry x="-230" y="-410" width="150" height="60" as="geometry" />
        </mxCell>
        <mxCell id="jXQzwG6hfJ6GIbbnQq5l-25" value="Presentation Layer" style="text;html=1;strokeColor=none;fillColor=none;align=center;verticalAlign=middle;whiteSpace=wrap;rounded=0;fontSize=10;" parent="1" vertex="1">
          <mxGeometry x="14" y="-169" width="40" height="20" as="geometry" />
        </mxCell>
        <mxCell id="jXQzwG6hfJ6GIbbnQq5l-29" value="Business Logic Layer" style="text;html=1;strokeColor=none;fillColor=none;align=center;verticalAlign=middle;whiteSpace=wrap;rounded=0;fontSize=10;" parent="1" vertex="1">
          <mxGeometry x="14" y="-450" width="40" height="20" as="geometry" />
        </mxCell>
        <mxCell id="jXQzwG6hfJ6GIbbnQq5l-31" value="Networking + Database Layer" style="text;html=1;strokeColor=none;fillColor=none;align=center;verticalAlign=middle;whiteSpace=wrap;rounded=0;fontSize=10;" parent="1" vertex="1">
          <mxGeometry x="340" y="-345" width="40" height="20" as="geometry" />
        </mxCell>
        <mxCell id="jXQzwG6hfJ6GIbbnQq5l-33" style="edgeStyle=orthogonalEdgeStyle;rounded=0;orthogonalLoop=1;jettySize=auto;html=1;exitX=0;exitY=0.5;exitDx=0;exitDy=0;entryX=1;entryY=0.75;entryDx=0;entryDy=0;endArrow=classic;endFill=1;fontSize=10;startArrow=classic;startFill=1;" parent="1" source="jXQzwG6hfJ6GIbbnQq5l-32" target="jXQzwG6hfJ6GIbbnQq5l-8" edge="1">
          <mxGeometry relative="1" as="geometry" />
        </mxCell>
        <mxCell id="jXQzwG6hfJ6GIbbnQq5l-37" style="edgeStyle=orthogonalEdgeStyle;rounded=0;orthogonalLoop=1;jettySize=auto;html=1;endArrow=classic;endFill=1;fontSize=10;exitX=1;exitY=0.5;exitDx=0;exitDy=0;" parent="1" source="jXQzwG6hfJ6GIbbnQq5l-32" target="jXQzwG6hfJ6GIbbnQq5l-34" edge="1">
          <mxGeometry relative="1" as="geometry" />
        </mxCell>
        <mxCell id="jXQzwG6hfJ6GIbbnQq5l-32" value="DashboardCoreDataWorker" style="rounded=1;whiteSpace=wrap;html=1;fontSize=10;fillColor=#e1d5e7;strokeColor=#9673a6;" parent="1" vertex="1">
          <mxGeometry x="160" y="-220" width="150" height="60" as="geometry" />
        </mxCell>
        <mxCell id="jXQzwG6hfJ6GIbbnQq5l-34" value="Model" style="rounded=1;whiteSpace=wrap;html=1;fontSize=10;fillColor=#e1d5e7;strokeColor=#9673a6;" parent="1" vertex="1">
          <mxGeometry x="440" y="-270" width="150" height="60" as="geometry" />
        </mxCell>
        <mxCell id="jXQzwG6hfJ6GIbbnQq5l-39" value="UI Layer" style="text;html=1;strokeColor=none;fillColor=none;align=center;verticalAlign=middle;whiteSpace=wrap;rounded=0;fontSize=10;" parent="1" vertex="1">
          <mxGeometry x="-350" y="-450" width="40" height="20" as="geometry" />
        </mxCell>
        <mxCell id="jXQzwG6hfJ6GIbbnQq5l-44" style="edgeStyle=orthogonalEdgeStyle;rounded=0;orthogonalLoop=1;jettySize=auto;html=1;exitX=0.5;exitY=1;exitDx=0;exitDy=0;startArrow=blockThin;startFill=0;endArrow=none;endFill=0;fontSize=10;" parent="1" source="jXQzwG6hfJ6GIbbnQq5l-43" target="jXQzwG6hfJ6GIbbnQq5l-8" edge="1">
          <mxGeometry relative="1" as="geometry" />
        </mxCell>
        <mxCell id="jXQzwG6hfJ6GIbbnQq5l-43" value="&lt;b&gt;&amp;lt;InteractorBusinessLogic&amp;gt;&lt;/b&gt;&lt;br&gt;-dataStore&lt;br&gt;" style="rounded=1;whiteSpace=wrap;html=1;fontSize=10;fillColor=#f5f5f5;strokeColor=#666666;fontColor=#333333;" parent="1" vertex="1">
          <mxGeometry x="-70" y="-410" width="160" height="60" as="geometry" />
        </mxCell>
        <mxCell id="jXQzwG6hfJ6GIbbnQq5l-46" value="&lt;b&gt;&amp;lt;DashboardInteractorLogic&amp;gt;&lt;/b&gt;" style="text;html=1;strokeColor=none;fillColor=none;align=center;verticalAlign=middle;whiteSpace=wrap;rounded=0;fontSize=10;" parent="1" vertex="1">
          <mxGeometry x="-85" y="-345" width="40" height="20" as="geometry" />
        </mxCell>
        <mxCell id="jXQzwG6hfJ6GIbbnQq5l-48" value="1" style="text;html=1;strokeColor=none;fillColor=none;align=center;verticalAlign=middle;whiteSpace=wrap;rounded=0;fontSize=10;" parent="1" vertex="1">
          <mxGeometry x="-201" y="-328" width="40" height="20" as="geometry" />
        </mxCell>
        <mxCell id="jXQzwG6hfJ6GIbbnQq5l-49" value="1" style="text;html=1;strokeColor=none;fillColor=none;align=center;verticalAlign=middle;whiteSpace=wrap;rounded=0;fontSize=10;" parent="1" vertex="1">
          <mxGeometry x="-60" y="-140" width="40" height="20" as="geometry" />
        </mxCell>
        <mxCell id="jXQzwG6hfJ6GIbbnQq5l-50" value="1" style="text;html=1;strokeColor=none;fillColor=none;align=center;verticalAlign=middle;whiteSpace=wrap;rounded=0;fontSize=10;" parent="1" vertex="1">
          <mxGeometry x="-340" width="40" height="20" as="geometry" />
        </mxCell>
        <mxCell id="aKPx_VpaYdWQIDwRMyh--2" style="edgeStyle=orthogonalEdgeStyle;rounded=0;orthogonalLoop=1;jettySize=auto;html=1;exitX=0.75;exitY=0;exitDx=0;exitDy=0;" parent="1" source="jXQzwG6hfJ6GIbbnQq5l-5" target="aKPx_VpaYdWQIDwRMyh--1" edge="1">
          <mxGeometry relative="1" as="geometry">
            <Array as="points">
              <mxPoint x="-455" y="-420" />
              <mxPoint x="-455" y="-420" />
            </Array>
            <mxPoint x="-523" y="-210" as="sourcePoint" />
          </mxGeometry>
        </mxCell>
        <mxCell id="aKPx_VpaYdWQIDwRMyh--1" value="UIKit" style="shape=cube;whiteSpace=wrap;html=1;boundedLbl=1;backgroundOutline=1;darkOpacity=0.05;darkOpacity2=0.1;size=10;" parent="1" vertex="1">
          <mxGeometry x="-485" y="-457.5" width="60" height="35" as="geometry" />
        </mxCell>
        <mxCell id="nhWdOt1stgoJv69dMVyv-16" value="" style="rounded=0;whiteSpace=wrap;html=1;fillColor=#ffe6cc;strokeColor=#d79b00;" vertex="1" parent="1">
          <mxGeometry x="-800" y="-460" width="280" height="280" as="geometry" />
        </mxCell>
        <mxCell id="nhWdOt1stgoJv69dMVyv-7" value="" style="edgeStyle=orthogonalEdgeStyle;rounded=0;orthogonalLoop=1;jettySize=auto;html=1;startArrow=none;startFill=0;endArrow=blockThin;endFill=0;exitX=0.5;exitY=0;exitDx=0;exitDy=0;" edge="1" parent="1" source="nhWdOt1stgoJv69dMVyv-6">
          <mxGeometry relative="1" as="geometry">
            <mxPoint x="-690" y="-310" as="targetPoint" />
          </mxGeometry>
        </mxCell>
        <mxCell id="nhWdOt1stgoJv69dMVyv-10" value="" style="edgeStyle=orthogonalEdgeStyle;rounded=0;orthogonalLoop=1;jettySize=auto;html=1;startArrow=none;startFill=0;endArrow=blockThin;endFill=0;" edge="1" parent="1" target="nhWdOt1stgoJv69dMVyv-9">
          <mxGeometry relative="1" as="geometry">
            <mxPoint x="-700" y="-310" as="sourcePoint" />
            <Array as="points">
              <mxPoint x="-720" y="-310" />
            </Array>
          </mxGeometry>
        </mxCell>
        <mxCell id="nhWdOt1stgoJv69dMVyv-12" value="" style="edgeStyle=orthogonalEdgeStyle;rounded=0;orthogonalLoop=1;jettySize=auto;html=1;startArrow=none;startFill=0;endArrow=blockThin;endFill=0;" edge="1" parent="1" target="nhWdOt1stgoJv69dMVyv-11">
          <mxGeometry relative="1" as="geometry">
            <mxPoint x="-700" y="-310" as="sourcePoint" />
          </mxGeometry>
        </mxCell>
        <mxCell id="nhWdOt1stgoJv69dMVyv-11" value="&amp;lt;DashboardRouting&amp;gt;&lt;br&gt;-routeToMovieDetail" style="rounded=1;whiteSpace=wrap;html=1;fontSize=10;" vertex="1" parent="1">
          <mxGeometry x="-650" y="-420" width="120" height="70" as="geometry" />
        </mxCell>
        <mxCell id="nhWdOt1stgoJv69dMVyv-9" value="&amp;lt;DashboardDataPassing&amp;gt;&lt;br&gt;-dataStore" style="rounded=1;whiteSpace=wrap;html=1;fontSize=10;" vertex="1" parent="1">
          <mxGeometry x="-780" y="-420" width="120" height="70" as="geometry" />
        </mxCell>
        <mxCell id="nhWdOt1stgoJv69dMVyv-6" value="&lt;b&gt;DashboardRouter&lt;/b&gt;&lt;br&gt;" style="rounded=1;whiteSpace=wrap;html=1;fontSize=10;" vertex="1" parent="1">
          <mxGeometry x="-750" y="-270" width="120" height="70" as="geometry" />
        </mxCell>
        <mxCell id="nhWdOt1stgoJv69dMVyv-13" value="&lt;span style=&quot;font-size: 10px&quot;&gt;&amp;lt;DashboardRouter&amp;gt;&lt;/span&gt;" style="text;html=1;strokeColor=none;fillColor=none;align=center;verticalAlign=middle;whiteSpace=wrap;rounded=0;" vertex="1" parent="1">
          <mxGeometry x="-680" y="-338" width="40" height="20" as="geometry" />
        </mxCell>
        <mxCell id="jXQzwG6hfJ6GIbbnQq5l-1" style="edgeStyle=orthogonalEdgeStyle;rounded=0;orthogonalLoop=1;jettySize=auto;html=1;startArrow=none;startFill=0;exitX=0.25;exitY=0;exitDx=0;exitDy=0;endArrow=classic;endFill=1;" parent="1" source="jXQzwG6hfJ6GIbbnQq5l-5" edge="1">
          <mxGeometry relative="1" as="geometry">
            <mxPoint x="-650" y="-310" as="targetPoint" />
            <Array as="points">
              <mxPoint x="-545" y="-280" />
              <mxPoint x="-650" y="-280" />
            </Array>
          </mxGeometry>
        </mxCell>
        <mxCell id="nhWdOt1stgoJv69dMVyv-19" value="Router" style="text;html=1;strokeColor=none;fillColor=none;align=center;verticalAlign=middle;whiteSpace=wrap;rounded=0;" vertex="1" parent="1">
          <mxGeometry x="-780" y="-450" width="40" height="20" as="geometry" />
        </mxCell>
      </root>
    </mxGraphModel>
  </diagram>
</mxfile>
